<?xml version="1.0" encoding="UTF-8"?>
<svg width="1080" height="269.45" version="1.1" viewBox="0 0 1080 269.45" xmlns="http://www.w3.org/2000/svg" xmlns:cc="http://creativecommons.org/ns#" xmlns:dc="http://purl.org/dc/elements/1.1/" xmlns:rdf="http://www.w3.org/1999/02/22-rdf-syntax-ns#">
 <metadata>
  <rdf:RDF>
   <cc:Work rdf:about="">
    <dc:format>image/svg+xml</dc:format>
    <dc:type rdf:resource="http://purl.org/dc/dcmitype/StillImage"/>
   </cc:Work>
  </rdf:RDF>
 </metadata>
 <g fill="#1b1918">
  <path d="m215.56 163.53-35.816-44.365c-1.1936-1.3613-5.0906-5.407-5.0906-7.1806v-40.089c4.2302 0 6.7443-0.9348 9.3926-2.8785 6.452-4.7263 5.6347-15.902 0.23726-20.657-1.9605-1.7233-6.1019-3.4609-9.6299-3.4609h-61.363c-3.039 0-7.4202 2.5309-8.9708 4.1175l-2.5357 4.0121c-0.80528 1.649-1.5818 2.5382-1.5818 4.9589 0 8.0768 5.7448 13.908 13.908 13.908v40.089c0 1.6059-8.0792 10.67-9.6372 12.456l-41.698 49.938c-1.7975 2.018-3.5806 4.175-5.2344 6.2194-9.5245 11.765-21.975 22.946-21.975 35.294 0 11.406 11.207 17.999 19.636 17.999h178.36c5.8575 0 14.404-3.8539 17.436-10.378 3.377-7.2549 2.3559-14.466-2.2193-20.382-3.0389-3.9305-32.578-37.206-33.218-39.601zm-110.25 28.245h25.666v18.467h28.149v-18.467h25.666c-0.31397-1.1815-8.1847-9.5292-9.6178-11.08-0.87006-0.93949-1.5987-1.5364-2.4975-2.471l-14.893-16.156c-1.0258-1.1648-1.2991-1.7304-2.483-2.8976l-7.5902-8.1416c-0.98997-1.2846-1.3879-1.8694-2.6581-2.7227l-10.042 10.658c-1.1289 1.1144-1.3637 1.4549-2.3176 2.6532l-9.8959 10.8c-0.89402 1.0162-1.7401 1.6921-2.6964 2.6867-1.0354 1.0738-1.2246 1.6322-2.2577 2.7058-1.9029 1.9772-12.118 12.408-12.532 13.965z" fill-rule="evenodd" stroke-width="1.5567"/>
  <path d="m36.883 0c-20.25 0-36.883 16.634-36.883 36.885v195.68c0 20.25 16.634 36.884 36.883 36.884h214.05c20.25 0 36.884-16.634 36.884-36.884v-195.68c0-20.25-16.634-36.885-36.884-36.885zm0 15.959h214.05c11.544 0 20.924 9.3799 20.924 20.925v195.68c0 11.544-9.3801 20.925-20.924 20.925h-214.05c-11.545 0-20.924-9.3788-20.924-20.925v-195.68c0-11.547 9.3789-20.925 20.924-20.925z" color="#000000" stroke-linecap="round" stroke-width=".014258" style="-inkscape-stroke:none"/>
  <g fill-rule="evenodd" stroke-width="1.5567">
   <path d="m336.49 216.59m115.84-96.313c-1.5533-10.209-4.2164-17.532-7.9892-21.971-4.6602-5.5478-11.762-8.2108-21.304-8.2108-13.537 0-24.411 7.1017-32.179 21.083-3.3286 5.7701-5.7701 11.984-7.3232 18.641-1.7758 6.6575-2.6631 13.759-2.6631 21.082 0 9.9864 2.6631 18.419 8.2106 25.299 5.3261 6.8792 12.872 10.208 22.637 10.208 8.2106 0 15.534-2.6631 21.97-7.9889 6.4358-5.1044 10.652-11.984 12.649-20.195l45.938 5.3258c-6.8792 17.532-17.31 31.513-31.069 41.499-13.759 9.9871-29.96 15.091-48.601 15.091-22.414 0-40.612-5.7694-54.148-17.088-14.647-12.205-21.971-29.515-21.971-51.485 0-27.296 7.9898-49.932 24.19-67.908 15.978-17.975 37.505-26.853 64.579-26.853 18.198 0 33.288 4.2171 45.494 12.649 11.984 8.4331 19.751 21.305 23.302 38.836l1.7756 11.096z"/>
   <path d="m501.73 216.59m87.215-159.56c21.97 0 39.946 5.7694 53.927 17.31 15.09 12.428 22.636 29.515 22.636 51.041 0 27.518-7.545 49.932-22.857 67.464-15.979 17.975-37.505 27.074-64.801 27.074-22.858 0-41.277-6.4358-55.258-19.085-13.981-12.649-20.861-30.403-20.861-53.261 0-25.964 7.9898-47.713 24.19-64.8 15.978-17.088 37.061-25.743 63.025-25.743zm-9.7645 129.6c14.425 0 25.521-7.545 33.288-22.857 5.9917-12.206 9.0989-26.187 9.0989-42.165 0-8.8772-3.3296-16.422-9.7648-22.636-6.6574-5.9917-14.425-9.0987-23.524-9.0987-13.981 0-24.855 7.1015-32.844 21.305-3.1072 5.7701-5.5477 11.984-7.1016 18.641-1.5533 6.6575-2.4406 13.759-2.4406 21.526 0 10.43 2.8848 19.085 8.8765 25.521 5.77 6.4352 13.981 9.7639 24.411 9.7639z"/>
   <path d="m666.08 216.59m27.962-156.01 83.665 0.88732c11.983 0 21.526 3.5513 28.627 10.652 7.1016 7.324 10.652 16.866 10.652 28.85 0 10.43-2.4405 19.308-7.1016 27.074-5.326 8.4332-12.871 13.759-22.414 15.979 5.1044 4.2162 8.6556 7.545 10.431 10.208 1.5539 2.8854 2.4413 7.3232 2.4413 13.759 0 17.975 1.553 34.176 4.8818 48.601h-43.718c-1.9973-5.9917-3.1071-15.535-3.1071-29.071 0-4.4387 0-8.4333-0.22172-11.762-0.22157-3.3289-1.1099-6.2134-2.2189-8.4332-2.4413-4.6602-8.4332-6.8792-17.976-6.8792h-17.531l-9.9872 56.146h-44.384zm78.782 47.491c0-5.9917-2.6631-9.9862-8.2108-12.428-3.5512-1.3314-9.0989-1.9972-16.422-1.9972h-16.645l-5.7694 33.954h19.307c3.9945 0 7.5447-0.44412 10.874-1.1099 3.3288-0.6658 5.9917-1.7756 8.2108-2.8847 5.77-3.107 8.6548-8.2114 8.6548-15.535z"/>
   <path d="m819.34 216.59m28.184-155.57h116.73l-6.6574 33.51h-71.902l-4.6602 25.077h69.017l-5.7703 31.956h-68.796l-5.7693 31.957h76.784l-5.3258 33.066h-121.83z"/>
   <path d="m957.5 216.59m28.184-155.34h43.94c-4.8828 25.521-9.0989 48.157-12.649 68.352-3.551 20.194-6.4358 38.614-8.8772 54.814h71.902l-5.992 32.623h-116.51l13.538-75.453c4.8817-31.291 9.7645-57.921 14.646-80.335z"/>
   <path d="m350.41 268.63m21.881-10.749 4.052 0.55452c-1.2793 3.5404-3.156 6.1846-5.5872 7.9759-2.4314 1.8338-5.2039 2.7298-8.2324 2.7298-3.7108 0-6.6537-1.1518-8.8292-3.4119-2.1754-2.261-3.2843-5.5026-3.2843-9.725 0-5.4599 1.6634-10.024 4.9471-13.607 2.9438-3.2417 6.6117-4.8207 11.005-4.8207 3.2417 0 5.8431 0.85323 7.8482 2.6025 2.005 1.7484 3.1989 4.052 3.4975 6.9951l-3.7962 0.34135c-0.42619-2.2182-1.2366-3.839-2.5168-4.948-1.2366-1.0662-2.8574-1.6208-4.8624-1.6208-3.7536 0-6.7821 1.6634-9.085 4.9908-1.9621 2.8574-2.9857 6.2274-2.9857 10.151 0 3.1568 0.76768 5.5453 2.3029 7.209 1.578 1.6635 3.583 2.474 6.0572 2.474 2.0899 0 4.0092-0.68299 5.7157-2.0478 1.7484-1.4077 2.9857-3.3274 3.7534-5.8433z"/>
   <path d="m392.42 268.63m0-12.796c0-5.4599 1.578-9.8533 4.7341-13.223 3.1568-3.3699 6.9532-5.0335 11.431-5.0335 3.839 0 6.953 1.2374 9.3415 3.7115 2.3884 2.474 3.5832 5.8004 3.5832 9.981 0 2.943-0.59729 5.7155-1.792 8.2324-0.93793 1.9193-2.047 3.5402-3.4547 4.9471-1.365 1.365-2.8155 2.4312-4.3935 3.1996-2.0899 0.98098-4.3081 1.4926-6.6537 1.4926-2.4312 0-4.6493-0.59729-6.6543-1.7482-2.0471-1.1521-3.5402-2.8155-4.5639-4.9054-1.0663-2.0907-1.578-4.3081-1.578-6.6544zm3.9664 0.21316c0 1.7919 0.38426 3.4126 1.109 4.948 0.76782 1.4933 1.8767 2.6442 3.3701 3.4975 1.4495 0.85323 3.0278 1.2803 4.6486 1.2803 1.5788 0 3.0713-0.38413 4.4789-1.1092 1.4507-0.76839 2.7301-1.7919 3.839-3.1141 1.1092-1.3222 2.0043-2.943 2.6444-4.9052 0.6402-1.9196 0.9807-3.839 0.9807-5.7158 0-3.0285-0.85223-5.4597-2.5587-7.2936-1.7063-1.7912-3.839-2.687-6.313-2.687-3.2417 0-6.0572 1.3648-8.5303 4.0946-2.4312 2.7301-3.6687 6.3979-3.6687 11.005z"/>
   <path d="m435.09 268.63m0 0 6.3556-30.54h5.1185l2.8146 19.791c0.38412 2.6016 0.59729 5.1182 0.72576 7.464 0.81031-2.005 2.26-4.777 4.2224-8.3173l10.706-18.938h5.1184l-6.4833 30.54h-4.0101l3.2424-14.844c0.72504-3.4555 1.7912-7.2936 3.1563-11.56-0.89601 1.9624-2.0052 4.0949-3.2844 6.3986l-11.303 20.005h-3.9673l-2.7727-19.621c-0.29772-1.7912-0.46882-3.881-0.55366-6.2274-0.38427 2.7298-0.72561 4.8624-1.0671 6.4413l-4.0521 19.407z"/>
   <path d="m481.48 268.63m0 0 6.3985-30.54h22.18l-0.72476 3.4548h-18.129l-2.0043 9.5545h17.744l-0.7249 3.4548h-17.744l-2.2173 10.621h19.322l-0.72505 3.4548zm15.612-32.418 3.9236-5.7148h4.735l-5.5454 5.7148z"/>
   <path d="m521.35 268.63m0 0 6.3986-30.54h12.796c2.5161 0 4.4355 0.21316 5.7586 0.63935 1.322 0.42704 2.3455 1.1946 3.0706 2.3884 0.72547 1.1518 1.1089 2.6451 1.1089 4.3935 0 2.474-0.81031 4.5637-2.4312 6.1846-1.6208 1.6637-4.2652 2.7299-7.8911 3.1998 1.1092 0.81046 1.9624 1.6209 2.5597 2.4312 1.2365 1.7912 2.2601 3.6251 3.0286 5.5446l2.3455 5.7586h-4.5637l-2.2181-5.673c-0.76782-2.0478-1.6637-3.839-2.6873-5.3315-0.68284-1.0671-1.3648-1.7491-2.0899-2.0906-0.72548-0.29857-1.9193-0.46882-3.5402-0.46882h-4.735l-2.8574 13.564zm7.5925-16.891h5.631c2.6444 0 4.3506-0.0436 5.1184-0.084 1.5352-0.17111 2.8155-0.51274 3.7962-1.0243 0.9807-0.55466 1.7484-1.2796 2.3028-2.2182 0.55465-0.89529 0.81045-1.8767 0.81045-2.9431 0-0.89514-0.21302-1.6635-0.59657-2.3027-0.4269-0.68299-0.93864-1.1092-1.5787-1.365-0.68212-0.21316-1.7912-0.34149-3.3691-0.34149h-9.981z"/>
   <path d="m565.19 268.63m21.881-10.749 4.0521 0.55452c-1.2796 3.5404-3.1563 6.1846-5.5875 7.9759-2.4312 1.8338-5.2039 2.7298-8.2324 2.7298-3.7106 0-6.6537-1.1518-8.829-3.4119-2.1753-2.261-3.2844-5.5026-3.2844-9.725 0-5.4599 1.6637-10.024 4.9473-13.607 2.9438-3.2417 6.6117-4.8207 11.005-4.8207 3.2417 0 5.8433 0.85323 7.8482 2.6025 2.005 1.7484 3.1989 4.052 3.4976 6.9951l-3.7962 0.34135c-0.42619-2.2182-1.2366-3.839-2.5168-4.948-1.2366-1.0662-2.8576-1.6208-4.8626-1.6208-3.7533 0-6.7819 1.6634-9.0848 4.9908-1.9623 2.8574-2.9857 6.2274-2.9857 10.151 0 3.1568 0.76753 5.5453 2.3029 7.209 1.578 1.6635 3.583 2.474 6.0572 2.474 2.0897 0 4.0092-0.68299 5.7155-2.0478 1.7485-1.4077 2.9859-3.3274 3.7536-5.8433z"/>
   <path d="m605.79 268.63m0 0 6.3976-30.54h4.0521l-6.3976 30.54z"/>
   <path d="m630.25 268.63m0-12.796c0-5.4599 1.5781-9.8533 4.7341-13.223 3.157-3.3699 6.9532-5.0335 11.431-5.0335 3.839 0 6.953 1.2374 9.3415 3.7115 2.3884 2.474 3.5832 5.8004 3.5832 9.981 0 2.943-0.59743 5.7155-1.792 8.2324-0.93792 1.9193-2.047 3.5402-3.4547 4.9471-1.3651 1.365-2.8156 2.4312-4.3936 3.1996-2.0897 0.98098-4.3078 1.4926-6.6536 1.4926-2.4312 0-4.6494-0.59729-6.6544-1.7482-2.0471-1.1521-3.5402-2.8155-4.5637-4.9054-1.0664-2.0907-1.5781-4.3081-1.5781-6.6544zm3.9666 0.21316c0 1.7919 0.38413 3.4126 1.109 4.948 0.76767 1.4933 1.8767 2.6442 3.37 3.4975 1.4498 0.85323 3.0278 1.2803 4.6486 1.2803 1.5788 0 3.0714-0.38413 4.4792-1.1092 1.4504-0.76839 2.7298-1.7919 3.839-3.1141 1.109-1.3222 2.0042-2.943 2.6442-4.9052 0.64007-1.9196 0.98084-3.839 0.98084-5.7158 0-3.0285-0.85251-5.4597-2.559-7.2936-1.7062-1.7912-3.839-2.687-6.3128-2.687-3.2417 0-6.0572 1.3648-8.5304 4.0946-2.4312 2.7301-3.6686 6.3979-3.6686 11.005z"/>
   <path d="m700.68 268.63m0 0 6.3985-30.54h9.2131c2.2173 0 3.881 0.17038 5.0756 0.4691 1.6637 0.42604 3.0714 1.1937 4.2651 2.3028 1.1518 1.1092 2.048 2.4741 2.6444 4.1377 0.59729 1.6635 0.89586 3.4975 0.89586 5.5453 0 2.4741-0.38341 4.7342-1.1089 6.7393-0.72505 2.0043-1.7065 3.7962-2.9003 5.3314-1.2375 1.5362-2.474 2.7299-3.7962 3.6258-1.322 0.85323-2.8583 1.4926-4.6494 1.9196-1.3648 0.29857-3.0285 0.4691-5.0328 0.4691zm4.7769-3.4548h4.8633c2.1753 0 4.1367-0.21317 5.8004-0.59729 1.0664-0.25594 1.9623-0.64021 2.7299-1.1092 0.98155-0.64006 1.8767-1.4505 2.687-2.474 1.0664-1.365 1.9196-2.943 2.5597-4.692 0.63921-1.7057 0.93792-3.7108 0.93792-5.929 0-2.474-0.42618-4.3935-1.2794-5.7157-0.89587-1.322-1.9623-2.2173-3.3271-2.6444-0.98084-0.29857-2.5162-0.46882-4.6066-0.46882h-5.4171z"/>
   <path d="m742.65 268.63m0 0 6.3985-30.54h22.18l-0.72476 3.4548h-18.129l-2.0042 9.5545h17.744l-0.72491 3.4548h-17.744l-2.2173 10.621h19.322l-0.72476 3.4548z"/>
   <path d="m814.41 268.63m0 0 6.3985-30.54h12.796c2.5159 0 4.4355 0.21316 5.7584 0.63935 1.3222 0.42704 2.3458 1.1946 3.0706 2.3884 0.72561 1.1518 1.1092 2.6451 1.1092 4.3935 0 2.474-0.81046 4.5637-2.4312 6.1846-1.6209 1.6637-4.2653 2.7299-7.8911 3.1998 1.109 0.81046 1.9622 1.6209 2.5595 2.4312 1.2366 1.7912 2.2601 3.6251 3.0285 5.5446l2.3457 5.7586h-4.5639l-2.218-5.673c-0.76768-2.0478-1.6637-3.839-2.6872-5.3315-0.68284-1.0671-1.365-1.7491-2.0897-2.0906-0.72576-0.29857-1.9196-0.46882-3.5404-0.46882h-4.7348l-2.8576 13.564zm7.5924-16.891h5.6308c2.6444 0 4.3508-0.0436 5.1184-0.084 1.5352-0.17111 2.8155-0.51274 3.7962-1.0243 0.9807-0.55466 1.7485-1.2796 2.303-2.2182 0.55451-0.89529 0.81045-1.8767 0.81045-2.9431 0-0.89514-0.21316-1.6635-0.59657-2.3027-0.42705-0.68299-0.93893-1.1092-1.5788-1.365-0.68212-0.21316-1.7913-0.34149-3.3693-0.34149h-9.9808z"/>
   <path d="m856.2 268.63m0 0 6.3985-30.54h22.18l-0.72476 3.4548h-18.129l-2.0042 9.5545h17.743l-0.7249 3.4548h-17.744l-2.2173 10.621h19.322l-0.7249 3.4548z"/>
   <path d="m897.01 268.63m0-9.8535 4.0092-0.38341-0.0436 1.0662c0 1.1939 0.25594 2.2603 0.81046 3.2417 0.55451 0.98084 1.4505 1.7484 2.6872 2.261 1.2374 0.5538 2.7298 0.81046 4.4362 0.81046 2.4314 0 4.3079-0.55466 5.5882-1.6208 1.2794-1.0672 1.9186-2.3039 1.9186-3.6687 0-0.93864-0.34063-1.8339-1.0236-2.6444-0.68199-0.76754-2.5587-1.8339-5.6728-3.1568-2.3886-1.0235-4.0093-1.8339-4.9054-2.3886-1.3648-0.89586-2.3884-1.8766-3.0285-2.943-0.63936-1.0664-0.9807-2.261-0.9807-3.6258 0-1.5781 0.42618-2.9857 1.2793-4.2653 0.896-1.2366 2.1326-2.2181 3.7963-2.9 1.6635-0.64021 3.5402-0.9817 5.588-0.9817 2.5159 0 4.6066 0.42704 6.3122 1.2374 1.7063 0.85323 2.9438 1.9624 3.7114 3.3274 0.76767 1.4069 1.1518 2.7298 1.1518 3.9664v0.64006l-3.9672 0.29857c0-0.85294-0.0857-1.5359-0.21316-2.005-0.29857-0.85294-0.72476-1.578-1.2793-2.1753-0.59729-0.55452-1.4077-1.0235-2.4312-1.4077-0.9817-0.34135-2.1335-0.5116-3.4128-0.5116-2.2182 0-3.9238 0.5116-5.1613 1.4932-0.93793 0.76768-1.4077 1.7912-1.4077 3.0706 0 0.72576 0.21387 1.4077 0.59728 2.005 0.38427 0.59729 1.0664 1.1518 2.0899 1.7485 0.72562 0.38412 2.4321 1.1946 5.1191 2.3892 2.1756 0.9807 3.7108 1.7484 4.5211 2.3029 1.109 0.72491 1.9623 1.6208 2.5596 2.6444 0.59657 1.0662 0.89529 2.2608 0.89529 3.583 0 1.6635-0.51188 3.1561-1.4926 4.5639-1.0235 1.4078-2.4312 2.4741-4.1803 3.2417-1.7912 0.7684-3.7962 1.1518-6.0992 1.1518-3.4556 0-6.2702-0.76754-8.4884-2.261-2.1753-1.4923-3.2843-4.2224-3.2843-8.1041z"/>
   <path d="m936.15 268.63m0 0 6.3978-30.54h4.0521l-6.3979 30.54z"/>
   <path d="m958.56 268.63m0 0 6.3986-30.54h4.3078l5.0328 11.473c1.5361 3.4976 2.7299 6.4413 3.6258 8.8297 0.55465 1.4077 1.1519 3.2844 1.8339 5.6301 0.38426-2.6016 0.85323-5.2467 1.4507-7.9765l3.7106-17.957h3.9664l-6.3549 30.54h-4.0949l-7.3792-17.659c-1.3222-3.1135-2.4312-6.0572-3.2844-8.7443-0.29871 2.3038-0.72504 4.9052-1.3223 7.8064l-3.9236 18.597z"/>
   <path d="m997.84 268.63m0 0 17.275-30.54h4.9054l5.0328 30.54h-3.9666l-1.4505-8.7871h-12.369l-4.9052 8.7871zm11.218-11.943h10.109l-1.1947-7.6779c-0.5116-3.0286-0.8103-5.5875-0.896-7.5925-0.7248 1.7492-1.7482 3.7963-3.0704 6.2275z"/>
   <path d="m1041.4 268.63m0-9.8535 4.0094-0.38341-0.042 1.0662c0 1.1939 0.2559 2.2603 0.8105 3.2417 0.5546 0.98084 1.4505 1.7484 2.6871 2.261 1.2374 0.5538 2.7298 0.81046 4.4363 0.81046 2.4312 0 4.308-0.55466 5.588-1.6208 1.2796-1.0672 1.9188-2.3039 1.9188-3.6687 0-0.93864-0.3405-1.8339-1.0235-2.6444-0.6821-0.76754-2.5587-1.8339-5.6729-3.1568-2.3884-1.0235-4.0093-1.8339-4.9053-2.3886-1.3649-0.89586-2.3885-1.8766-3.0285-2.943-0.6393-1.0664-0.9807-2.261-0.9807-3.6258 0-1.5781 0.4261-2.9857 1.2794-4.2653 0.8958-1.2366 2.1325-2.2181 3.7962-2.9 1.6636-0.64021 3.5402-0.9817 5.588-0.9817 2.5161 0 4.6068 0.42704 6.3122 1.2374 1.7065 0.85323 2.9437 1.9624 3.7115 3.3274 0.7677 1.4069 1.1518 2.7298 1.1518 3.9664v0.64006l-3.9673 0.29857c0-0.85294-0.085-1.5359-0.213-2.005-0.2987-0.85294-0.725-1.578-1.2795-2.1753-0.5973-0.55452-1.4076-1.0235-2.4313-1.4077-0.9814-0.34135-2.1332-0.5116-3.4127-0.5116-2.2181 0-3.9238 0.5116-5.161 1.4932-0.9381 0.76768-1.4078 1.7912-1.4078 3.0706 0 0.72576 0.2138 1.4077 0.5973 2.005 0.3843 0.59729 1.0663 1.1518 2.0897 1.7485 0.7258 0.38412 2.4321 1.1946 5.1193 2.3892 2.1752 0.9807 3.7105 1.7484 4.5209 2.3029 1.1092 0.72491 1.9624 1.6208 2.5597 2.6444 0.5966 1.0662 0.8951 2.2608 0.8951 3.583 0 1.6635-0.5117 3.1561-1.4924 4.5639-1.0236 1.4078-2.4312 2.4741-4.1806 3.2417-1.791 0.7684-3.796 1.1518-6.0989 1.1518-3.4556 0-6.2702-0.76754-8.4884-2.261-2.1753-1.4923-3.2844-4.2224-3.2844-8.1041z"/>
  </g>
 </g>
 <g transform="matrix(32.312 0 0 32.312 -5688 -16881)">
  <path d="m209.97 313.68-23.008-28.5c-0.7667-0.8745-3.2701-3.4734-3.2701-4.6127v-25.753c2.7174 0 4.3324-0.6005 6.0337-1.8491 4.1446-3.0361 3.6196-10.215 0.1524-13.27-1.2594-1.107-3.9198-2.2232-6.1861-2.2232h-39.418c-1.9522 0-4.7666 1.6258-5.7627 2.645l-1.6289 2.5773c-0.5173 1.0593-1.0161 1.6305-1.0161 3.1855 0 5.1884 3.6904 8.9343 8.9343 8.9343v25.753c0 1.0316-5.19 6.8543-6.1908 8.0013l-26.786 32.079c-1.1547 1.2964-2.3001 2.682-3.3625 3.9953-6.1184 7.5579-14.117 14.74-14.117 22.672 0 7.327 7.1992 11.562 12.614 11.562h114.58c3.7628 0 9.253-2.4757 11.201-6.6665 2.1693-4.6604 1.5134-9.293-1.4257-13.093-1.9522-2.5249-20.928-23.901-21.339-25.439zm-70.82 18.144h16.488v11.863h18.083v-11.863h16.488c-0.2017-0.759-5.2577-6.1215-6.1784-7.1176-0.5589-0.6035-1.0269-0.9869-1.6043-1.5873l-9.5671-10.378c-0.6589-0.7482-0.8345-1.1116-1.595-1.8614l-4.8759-5.23c-0.6359-0.8252-0.8915-1.2009-1.7075-1.749l-6.4509 6.8466c-0.7252 0.7159-0.876 0.9346-1.4888 1.7044l-6.357 6.9374c-0.5743 0.6528-1.1178 1.087-1.7321 1.7259-0.6651 0.6898-0.7867 1.0485-1.4503 1.7382-1.2224 1.2702-7.7842 7.9705-8.0506 8.9713z" fill="#1b1918" fill-rule="evenodd"/>
  <path d="m95.187 213.75h137.5c10.212 0 18.568 8.3556 18.568 18.568v125.7c0 10.212-8.3555 18.568-18.568 18.568h-137.5c-10.212 0-18.567-8.3551-18.567-18.568v-125.7c0-10.213 8.355-18.568 18.567-18.568z" fill="none" stroke="#1b1918" stroke-linecap="round" stroke-width="10.252"/>
  <g fill="#1b1918" fill-rule="evenodd">
   <path d="m287.65 347.76m74.416-61.87c-0.9978-6.558-2.7085-11.262-5.1321-14.114-2.9937-3.5638-7.5557-5.2745-13.685-5.2745-8.6963 0-15.681 4.562-20.671 13.543-2.1383 3.7066-3.7066 7.6981-4.7043 11.975-1.1407 4.2767-1.7107 8.8386-1.7107 13.543 0 6.4151 1.7107 11.832 5.2744 16.252 3.4214 4.4191 8.2686 6.5574 14.541 6.5574 5.2744 0 9.9788-1.7107 14.113-5.132 4.1343-3.279 6.8427-7.6981 8.1257-12.973l29.51 3.4213c-4.4191 11.262-11.12 20.243-19.958 26.658-8.8387 6.4155-19.246 9.694-31.22 9.694-14.398 0-26.088-3.7062-34.784-10.977-9.4088-7.8405-14.114-18.96-14.114-33.074 0-17.534 5.1325-32.076 15.539-43.623 10.264-11.547 24.092-17.25 41.484-17.25 11.69 0 21.384 2.709 29.224 8.1258 7.6986 5.4173 12.688 13.686 14.969 24.948l1.1406 7.128z"/>
   <path d="m393.8 347.76m56.026-102.5c14.113 0 25.661 3.7062 34.642 11.12 9.694 7.9833 14.541 18.96 14.541 32.788 0 17.677-4.8468 32.076-14.683 43.338-10.265 11.547-24.092 17.392-41.627 17.392-14.684 0-26.516-4.1343-35.497-12.26-8.981-8.1258-13.401-19.53-13.401-34.214 0-16.679 5.1325-30.65 15.539-41.627 10.264-10.977 23.808-16.537 40.487-16.537zm-6.2726 83.254c9.2663 0 16.394-4.8468 21.384-14.683 3.849-7.8409 5.845-16.822 5.845-27.086 0-5.7026-2.1389-10.549-6.2727-14.541-4.2767-3.849-9.2663-5.8449-15.111-5.8449-8.9811 0-15.967 4.5619-21.099 13.686-1.996 3.7066-3.5638 7.6981-4.562 11.975-0.9978 4.2767-1.5678 8.8386-1.5678 13.828 0 6.7003 1.8531 12.26 5.7021 16.394 3.7066 4.1338 8.9811 6.2722 15.681 6.2722z"/>
   <path d="m499.37 347.76m17.962-100.22 53.745 0.57c7.698 0 13.828 2.2813 18.39 6.8428 4.562 4.7048 6.8427 10.835 6.8427 18.533 0 6.7003-1.5678 12.403-4.562 17.392-3.4213 5.4174-8.2681 8.8387-14.398 10.265 3.279 2.7084 5.5603 4.8468 6.7004 6.5575 0.9982 1.8535 1.5683 4.7043 1.5683 8.8386 0 11.547 0.9977 21.954 3.136 31.22h-28.084c-1.283-3.849-1.9959-9.9793-1.9959-18.675 0-2.8513 0-5.4174-0.1424-7.5557-0.1424-2.1384-0.713-3.9914-1.4254-5.4173-1.5683-2.9937-5.4174-4.4191-11.548-4.4191h-11.262l-6.4156 36.067h-28.512zm50.608 30.507c0-3.849-1.7107-6.415-5.2744-7.9833-2.2813-0.8553-5.845-1.283-10.549-1.283h-10.692l-3.7062 21.812h12.402c2.566 0 4.8467-0.2853 6.9856-0.713 2.1383-0.4277 3.849-1.1406 5.2744-1.8531 3.7066-1.9959 5.5597-5.2749 5.5597-9.9793z"/>
   <path d="m597.82 347.76m18.105-99.933h74.986l-4.2767 21.526h-46.189l-2.9937 16.109h44.336l-3.7067 20.528h-44.193l-3.7061 20.529h49.325l-3.4213 21.241h-78.265z"/>
   <path d="m686.58 347.76m18.105-99.791h28.227c-3.1366 16.394-5.845 30.935-8.1257 43.908-2.2812 12.972-4.1343 24.805-5.7026 35.212h46.189l-3.8491 20.956h-74.843l8.6963-48.47c3.136-20.101 6.2726-37.208 9.4087-51.606z"/>
   <path d="m296.59 381.19m14.056-6.9047 2.603 0.3562c-0.8218 2.2743-2.0274 3.9729-3.5892 5.1236-1.5618 1.178-3.3429 1.7536-5.2884 1.7536-2.3837 0-4.2742-0.7399-5.6717-2.1918-1.3974-1.4524-2.1098-3.5348-2.1098-6.2472 0-3.5073 1.0686-6.4395 3.178-8.7407 1.8911-2.0824 4.2472-3.0967 7.0696-3.0967 2.0824 0 3.7536 0.5481 5.0416 1.6718 1.288 1.1231 2.0549 2.6029 2.2467 4.4935l-2.4386 0.2193c-0.2738-1.4249-0.7944-2.4661-1.6167-3.1785-0.7944-0.685-1.8356-1.0412-3.1236-1.0412-2.4112 0-4.3567 1.0686-5.836 3.206-1.2605 1.8356-1.918 4.0004-1.918 6.521 0 2.0279 0.4931 3.5622 1.4793 4.6309 1.0137 1.0687 2.3017 1.5893 3.891 1.5893 1.3425 0 2.5755-0.4387 3.6717-1.3155 1.1231-0.9043 1.918-2.1374 2.4111-3.7536z"/>
   <path d="m323.58 381.19m0-8.2202c0-3.5073 1.0137-6.3296 3.0411-8.494 2.0279-2.1648 4.4666-3.2335 7.3433-3.2335 2.4661 0 4.4666 0.7949 6.0009 2.3842s2.3017 3.7261 2.3017 6.4116c0 1.8905-0.3837 3.6716-1.1511 5.2884-0.6025 1.233-1.315 2.2742-2.2193 3.178-0.8768 0.8768-1.8086 1.5618-2.8223 2.0554-1.3425 0.6301-2.7674 0.9588-4.2742 0.9588-1.5618 0-2.9867-0.3837-4.2747-1.1231-1.315-0.74-2.2742-1.8086-2.9317-3.1511-0.685-1.343-1.0137-2.7674-1.0137-4.2747zm2.548 0.1369c0 1.1511 0.2468 2.1923 0.7124 3.1785 0.4932 0.9593 1.2056 1.6987 2.1649 2.2468 0.9312 0.5481 1.945 0.8224 2.9862 0.8224 1.0142 0 1.9729-0.2468 2.8772-0.7125 0.9318-0.4936 1.7537-1.1511 2.4661-2.0004 0.7125-0.8494 1.2875-1.8906 1.6987-3.1511 0.4112-1.2331 0.63-2.4661 0.63-3.6717 0-1.9455-0.5475-3.5073-1.6437-4.6854-1.0961-1.1506-2.4661-1.7261-4.0554-1.7261-2.0824 0-3.891 0.8768-5.4797 2.6304-1.5618 1.7537-2.3567 4.1099-2.3567 7.0691z"/>
   <path d="m350.99 381.19m0 0 4.0828-19.618h3.288l1.8081 12.714c0.2468 1.6712 0.3837 3.2879 0.4662 4.7948 0.5206-1.288 1.4518-3.0687 2.7124-5.3429l6.8777-12.166h3.2879l-4.1648 19.618h-2.576l2.0829-9.5352c0.4657-2.2198 1.1506-4.6854 2.0275-7.4258-0.5756 1.2606-1.2881 2.6305-2.1099 4.1104l-7.2609 12.851h-2.5486l-1.7811-12.604c-0.1913-1.1506-0.3012-2.4931-0.3557-4.0004-0.2468 1.7536-0.4661 3.1236-0.6855 4.1378l-2.603 12.467z"/>
   <path d="m380.79 381.19m0 0 4.1103-19.618h14.248l-0.4656 2.2193h-11.646l-1.2875 6.1377h11.398l-0.4657 2.2193h-11.399l-1.4244 6.8228h12.412l-0.4657 2.2193zm10.029-20.824 2.5205-3.6711h3.0417l-3.5623 3.6711z"/>
   <path d="m406.4 381.19m0 0 4.1104-19.618h8.2201c1.6163 0 2.8493 0.1369 3.6992 0.4107 0.8493 0.2743 1.5068 0.7674 1.9725 1.5343 0.4661 0.7399 0.7124 1.6992 0.7124 2.8223 0 1.5893-0.5206 2.9317-1.5618 3.9729-1.0412 1.0687-2.7399 1.7537-5.0691 2.0555 0.7125 0.5206 1.2606 1.0412 1.6443 1.5618 0.7943 1.1506 1.4518 2.3287 1.9455 3.5617l1.5068 3.6992h-2.9317l-1.4249-3.6442c-0.4932-1.3155-1.0687-2.4661-1.7262-3.4249-0.4387-0.6855-0.8768-1.1236-1.3425-1.343-0.4661-0.1918-1.233-0.3012-2.2742-0.3012h-3.0417l-1.8356 8.7133zm4.8773-10.851h3.6172c1.6987 0 2.7948-0.028 3.288-0.054 0.9862-0.1099 1.8086-0.3293 2.4386-0.658 0.63-0.3563 1.1231-0.8219 1.4793-1.4249 0.3563-0.5751 0.5206-1.2056 0.5206-1.8906 0-0.575-0.1369-1.0686-0.3832-1.4793-0.2743-0.4387-0.603-0.7125-1.0142-0.8768-0.4382-0.1369-1.1506-0.2194-2.1643-0.2194h-6.4116z"/>
   <path d="m434.56 381.19m14.056-6.9047 2.603 0.3562c-0.8219 2.2743-2.0275 3.9729-3.5893 5.1236-1.5618 1.178-3.3429 1.7536-5.2884 1.7536-2.3836 0-4.2742-0.7399-5.6716-2.1918-1.3974-1.4524-2.1099-3.5348-2.1099-6.2472 0-3.5073 1.0687-6.4395 3.1781-8.7407 1.891-2.0824 4.2472-3.0967 7.0695-3.0967 2.0824 0 3.7536 0.5481 5.0416 1.6718 1.288 1.1231 2.0549 2.6029 2.2468 4.4935l-2.4386 0.2193c-0.2738-1.4249-0.7944-2.4661-1.6168-3.1785-0.7944-0.685-1.8356-1.0412-3.1236-1.0412-2.4111 0-4.3566 1.0686-5.836 3.206-1.2605 1.8356-1.918 4.0004-1.918 6.521 0 2.0279 0.4931 3.5622 1.4794 4.6309 1.0137 1.0687 2.3017 1.5893 3.891 1.5893 1.3424 0 2.5755-0.4387 3.6716-1.3155 1.1232-0.9043 1.9181-2.1374 2.4112-3.7536z"/>
   <path d="m460.64 381.19m0 0 4.1098-19.618h2.603l-4.1098 19.618z"/>
   <path d="m476.36 381.19m0-8.2202c0-3.5073 1.0137-6.3296 3.0411-8.494 2.028-2.1648 4.4666-3.2335 7.3434-3.2335 2.4661 0 4.4665 0.7949 6.0008 2.3842s2.3018 3.7261 2.3018 6.4116c0 1.8905-0.3838 3.6716-1.1512 5.2884-0.6025 1.233-1.3149 2.2742-2.2192 3.178-0.8769 0.8768-1.8087 1.5618-2.8224 2.0554-1.3424 0.6301-2.7673 0.9588-4.2742 0.9588-1.5618 0-2.9867-0.3837-4.2747-1.1231-1.315-0.74-2.2742-1.8086-2.9317-3.1511-0.685-1.343-1.0137-2.7674-1.0137-4.2747zm2.548 0.1369c0 1.1511 0.2468 2.1923 0.7125 3.1785 0.4931 0.9593 1.2055 1.6987 2.1648 2.2468 0.9313 0.5481 1.945 0.8224 2.9862 0.8224 1.0142 0 1.973-0.2468 2.8773-0.7125 0.9317-0.4936 1.7536-1.1511 2.4661-2.0004 0.7124-0.8494 1.2875-1.8906 1.6986-3.1511 0.4112-1.2331 0.6301-2.4661 0.6301-3.6717 0-1.9455-0.5476-3.5073-1.6438-4.6854-1.0961-1.1506-2.4661-1.7261-4.0553-1.7261-2.0824 0-3.891 0.8768-5.4798 2.6304-1.5618 1.7537-2.3567 4.1099-2.3567 7.0691z"/>
   <path d="m521.6 381.19m0 0 4.1103-19.618h5.9184c1.4244 0 2.4931 0.1094 3.2605 0.3013 1.0687 0.2737 1.973 0.7669 2.7399 1.4793 0.7399 0.7125 1.3155 1.5893 1.6987 2.658 0.3837 1.0686 0.5755 2.2467 0.5755 3.5622 0 1.5893-0.2463 3.0412-0.7124 4.3292-0.4657 1.2875-1.0962 2.4386-1.8631 3.4248-0.7949 0.9868-1.5892 1.7537-2.4386 2.3292-0.8493 0.5481-1.8361 0.9588-2.9867 1.2331-0.8768 0.1918-1.9455 0.3013-3.233 0.3013zm3.0686-2.2193h3.1241c1.3974 0 2.6574-0.1369 3.7261-0.3837 0.685-0.1644 1.2605-0.4112 1.7537-0.7125 0.6305-0.4112 1.2055-0.9318 1.7261-1.5893 0.685-0.8768 1.2331-1.8905 1.6443-3.0141 0.4106-1.0957 0.6025-2.3837 0.6025-3.8086 0-1.5893-0.2738-2.8223-0.8219-3.6717-0.5755-0.8493-1.2605-1.4244-2.1373-1.6987-0.63-0.1918-1.6163-0.3012-2.9592-0.3012h-3.4799z"/>
   <path d="m548.56 381.19m0 0 4.1103-19.618h14.248l-0.4656 2.2193h-11.646l-1.2875 6.1377h11.398l-0.4656 2.2193h-11.399l-1.4244 6.8228h12.412l-0.4656 2.2193z"/>
   <path d="m594.66 381.19m0 0 4.1103-19.618h8.2202c1.6162 0 2.8493 0.1369 3.6991 0.4107 0.8494 0.2743 1.5069 0.7674 1.9725 1.5343 0.4661 0.7399 0.7125 1.6992 0.7125 2.8223 0 1.5893-0.5206 2.9317-1.5618 3.9729-1.0412 1.0687-2.7399 1.7537-5.0691 2.0555 0.7124 0.5206 1.2605 1.0412 1.6442 1.5618 0.7944 1.1506 1.4519 2.3287 1.9455 3.5617l1.5068 3.6992h-2.9317l-1.4249-3.6442c-0.4931-1.3155-1.0687-2.4661-1.7262-3.4249-0.4386-0.6855-0.8768-1.1236-1.3424-1.343-0.4662-0.1918-1.2331-0.3012-2.2743-0.3012h-3.0416l-1.8356 8.7133zm4.8772-10.851h3.6172c1.6987 0 2.7949-0.028 3.288-0.054 0.9862-0.1099 1.8086-0.3293 2.4386-0.658 0.63-0.3563 1.1232-0.8219 1.4794-1.4249 0.3562-0.5751 0.5206-1.2056 0.5206-1.8906 0-0.575-0.1369-1.0686-0.3832-1.4793-0.2743-0.4387-0.6031-0.7125-1.0142-0.8768-0.4382-0.1369-1.1507-0.2194-2.1644-0.2194h-6.4115z"/>
   <path d="m621.51 381.19m0 0 4.1103-19.618h14.248l-0.4656 2.2193h-11.646l-1.2875 6.1377h11.398l-0.4657 2.2193h-11.399l-1.4244 6.8228h12.412l-0.4656 2.2193z"/>
   <path d="m647.72 381.19m0-6.3297 2.5755-0.2463-0.028 0.685c0 0.7669 0.1644 1.4519 0.5206 2.0824 0.3562 0.63 0.9318 1.1231 1.7262 1.4524 0.7948 0.3557 1.7536 0.5206 2.8498 0.5206 1.5618 0 2.7673-0.3563 3.5897-1.0412 0.8219-0.6855 1.2325-1.4799 1.2325-2.3567 0-0.603-0.2188-1.1781-0.6575-1.6987-0.4381-0.4931-1.6437-1.1781-3.6441-2.0279-1.5344-0.6575-2.5756-1.1781-3.1511-1.5344-0.8768-0.5755-1.5343-1.2055-1.9455-1.8905-0.4107-0.685-0.63-1.4524-0.63-2.3292 0-1.0137 0.2738-1.918 0.8218-2.7399 0.5756-0.7944 1.37-1.4249 2.4387-1.863 1.0686-0.4112 2.2742-0.6306 3.5897-0.6306 1.6162 0 2.9592 0.2743 4.0549 0.7949 1.0961 0.5481 1.891 1.2606 2.3841 2.1374 0.4931 0.9038 0.7399 1.7536 0.7399 2.548v0.4112l-2.5485 0.1918c0-0.548-0.055-0.9867-0.1369-1.288-0.1918-0.548-0.4656-1.0137-0.8218-1.3974-0.3837-0.3562-0.9043-0.6575-1.5618-0.9043-0.6306-0.2193-1.3705-0.3287-2.1923-0.3287-1.4249 0-2.5206 0.3287-3.3155 0.9592-0.6025 0.4932-0.9043 1.1506-0.9043 1.9725 0 0.4662 0.1374 0.9043 0.3837 1.288 0.2468 0.3837 0.685 0.7399 1.3425 1.1232 0.4661 0.2468 1.5623 0.7674 3.2884 1.5348 1.3975 0.63 2.3837 1.1231 2.9043 1.4793 0.7124 0.4657 1.2605 1.0412 1.6442 1.6987 0.3832 0.685 0.5751 1.4524 0.5751 2.3017 0 1.0687-0.3288 2.0275-0.9588 2.9318-0.6575 0.9043-1.5618 1.5893-2.6854 2.0824-1.1506 0.4936-2.4386 0.7399-3.918 0.7399-2.2198 0-4.0279-0.4931-5.4528-1.4524-1.3974-0.9587-2.1098-2.7124-2.1098-5.206z"/>
   <path d="m672.86 381.19m0 0 4.1098-19.618h2.603l-4.1099 19.618z"/>
   <path d="m687.26 381.19m0 0 4.1104-19.618h2.7673l3.233 7.3703c0.9868 2.2468 1.7537 4.1378 2.3292 5.6721 0.3563 0.9043 0.74 2.1099 1.1781 3.6167 0.2468-1.6712 0.5481-3.3704 0.9318-5.124l2.3837-11.535h2.548l-4.0823 19.618h-2.6305l-4.7403-11.344c-0.8494-2-1.5618-3.891-2.1099-5.6172-0.1919 1.4799-0.4657 3.1511-0.8494 5.0147l-2.5205 11.946z"/>
   <path d="m712.49 381.19m0 0 11.097-19.618h3.1511l3.233 19.618h-2.548l-0.9318-5.6447h-7.9459l-3.1511 5.6447zm7.2064-7.6721h6.494l-0.7674-4.9322c-0.3287-1.9455-0.5206-3.5893-0.5756-4.8773-0.4656 1.1237-1.1231 2.4387-1.9724 4.0005z"/>
   <path d="m740.46 381.19m0-6.3297 2.5755-0.2463-0.027 0.685c0 0.7669 0.1644 1.4519 0.5206 2.0824 0.3563 0.63 0.9318 1.1231 1.7262 1.4524 0.7949 0.3557 1.7536 0.5206 2.8498 0.5206 1.5618 0 2.7674-0.3563 3.5897-1.0412 0.8219-0.6855 1.2326-1.4799 1.2326-2.3567 0-0.603-0.2188-1.1781-0.6575-1.6987-0.4382-0.4931-1.6437-1.1781-3.6442-2.0279-1.5343-0.6575-2.5755-1.1781-3.1511-1.5344-0.8768-0.5755-1.5343-1.2055-1.9455-1.8905-0.4106-0.685-0.63-1.4524-0.63-2.3292 0-1.0137 0.2738-1.918 0.8219-2.7399 0.5755-0.7944 1.3699-1.4249 2.4386-1.863 1.0687-0.4112 2.2742-0.6306 3.5897-0.6306 1.6163 0 2.9593 0.2743 4.0549 0.7949 1.0962 0.5481 1.891 1.2606 2.3842 2.1374 0.4931 0.9038 0.7399 1.7536 0.7399 2.548v0.4112l-2.5485 0.1918c0-0.548-0.055-0.9867-0.1369-1.288-0.1919-0.548-0.4657-1.0137-0.8219-1.3974-0.3837-0.3562-0.9043-0.6575-1.5618-0.9043-0.6305-0.2193-1.3704-0.3287-2.1923-0.3287-1.4249 0-2.5206 0.3287-3.3154 0.9592-0.6026 0.4932-0.9043 1.1506-0.9043 1.9725 0 0.4662 0.1373 0.9043 0.3837 1.288 0.2468 0.3837 0.6849 0.7399 1.3424 1.1232 0.4662 0.2468 1.5623 0.7674 3.2885 1.5348 1.3974 0.63 2.3836 1.1231 2.9042 1.4793 0.7125 0.4657 1.2606 1.0412 1.6443 1.6987 0.3832 0.685 0.575 1.4524 0.575 2.3017 0 1.0687-0.3287 2.0275-0.9587 2.9318-0.6575 0.9043-1.5618 1.5893-2.6855 2.0824-1.1506 0.4936-2.4386 0.7399-3.9179 0.7399-2.2198 0-4.0279-0.4931-5.4528-1.4524-1.3974-0.9587-2.1099-2.7124-2.1099-5.206z"/>
  </g>
 </g>
</svg>
